<svg xmlns="http://www.w3.org/2000/svg" height="568.88" width="588.42"><path d="M10.5 177.038l20.675 1.532c21.44-24.25 29.864-95.974 156.213-81.935C182.793 403.955 48.02 436.372 56.445 499.42c3.063 35.734 31.395 57.686 62.025 58.962 96.74-3.318 92.4-133.75 122.52-462.513h124.818c-6.637 115.882-24.76 231.766-26.802 345.352 1.532 75.554 47.477 115.884 107.97 116.394 99.55 3.318 130.944-112.82 130.944-162.34h-21.44c-2.043 40.84-21.697 70.195-63.558 71.982-114.097 1.53-51.305-200.627-50.54-369.858l135.538.766-.765-86.53C13.807 8.908 85.312-2.137 10.5 177.038z" fill="#fef504"/></svg>